<svg width="32" height="32" viewBox="0 0 32 32" fill="none" xmlns="http://www.w3.org/2000/svg">
<rect x="-6.00043" y="0.222222" width="44" height="31.5556" rx="1.55556" fill="white" stroke="#F5F5F5" stroke-width="0.444444"/>
<mask id="mask0_1855_10533" style="mask-type:luminance" maskUnits="userSpaceOnUse" x="-7" y="0" width="46" height="32">
<rect x="-6.00043" y="0.222222" width="44" height="31.5556" rx="1.55556" fill="white" stroke="white" stroke-width="0.444444"/>
</mask>
<g mask="url(#mask0_1855_10533)">
<path fill-rule="evenodd" clip-rule="evenodd" d="M-4.44488 0C-5.42672 0 -6.22266 0.795939 -6.22266 1.77778V12.8H6.47576V0H-4.44488ZM12.825 0V12.8H38.2218V1.77778C38.2218 0.795938 37.4258 0 36.444 0H12.825ZM38.2218 19.2H12.825V32H36.444C37.4259 32 38.2218 31.2041 38.2218 30.2222V19.2ZM6.47576 32V19.2H-6.22266V30.2222C-6.22266 31.2041 -5.42672 32 -4.44488 32H6.47576Z" fill="#EF264D"/>
</g>
</svg>
