<svg width="32" height="32" viewBox="0 0 32 32" fill="none" xmlns="http://www.w3.org/2000/svg">
<path d="M52.7689 -0.172852H-11.5801V34.1466H52.7689V-0.172852Z" fill="white"/>
<path d="M52.7689 -0.172852H-11.5801V2.46711H52.7689V-0.172852Z" fill="#BB133E"/>
<path d="M52.7689 5.1084H-11.5801V7.74836H52.7689V5.1084Z" fill="#BB133E"/>
<path d="M52.7689 10.3828H-11.5801V13.0228H52.7689V10.3828Z" fill="#BB133E"/>
<path d="M52.7689 15.6709H-11.5801V18.3109H52.7689V15.6709Z" fill="#BB133E"/>
<path d="M52.7689 20.9492H-11.5801V23.5892H52.7689V20.9492Z" fill="#BB133E"/>
<path d="M52.7689 26.2266H-11.5801V28.8665H52.7689V26.2266Z" fill="#BB133E"/>
<path d="M52.7689 31.5049H-11.5801V34.1448H52.7689V31.5049Z" fill="#BB133E"/>
<path d="M14.1595 -0.172852H-11.5801V18.3068H14.1595V-0.172852Z" fill="#002664"/>
<path d="M-0.947154 1.31688L0.149658 1.31688L-0.737682 1.97016L-0.947154 1.31688Z" fill="white"/>
<path d="M-0.568215 1.44074L-0.229281 2.49777L-1.11662 1.84449L-0.568215 1.44074Z" fill="white"/>
<path d="M3.6981 1.84406L2.81076 2.49734L3.14969 1.4403L3.6981 1.84406Z" fill="white"/>
<path d="M3.31825 1.97313L2.43091 1.31984L3.52772 1.31984L3.31825 1.97313Z" fill="white"/>
<path d="M3.08496 1.64493L3.42389 0.587891L3.76283 1.64493H3.08496Z" fill="white"/>
<path d="M3.31847 1.31688L4.41528 1.31688L3.52794 1.97016L3.31847 1.31688Z" fill="white"/>
<path d="M3.69741 1.44074L4.03634 2.49777L3.149 1.84449L3.69741 1.44074Z" fill="white"/>
<path d="M7.96763 1.84406L7.08029 2.49734L7.41922 1.4403L7.96763 1.84406Z" fill="white"/>
<path d="M7.58778 1.97313L6.70044 1.31984L7.79725 1.31984L7.58778 1.97313Z" fill="white"/>
<path d="M7.35449 1.64493L7.69343 0.587891L8.03236 1.64493H7.35449Z" fill="white"/>
<path d="M7.588 1.31688L8.68481 1.31688L7.79747 1.97016L7.588 1.31688Z" fill="white"/>
<path d="M7.96694 1.44074L8.30588 2.49777L7.41854 1.84449L7.96694 1.44074Z" fill="white"/>
<path d="M12.2328 1.84406L11.3454 2.49734L11.6844 1.4403L12.2328 1.84406Z" fill="white"/>
<path d="M11.8529 1.97313L10.9656 1.31984L12.0624 1.31984L11.8529 1.97313Z" fill="white"/>
<path d="M11.6196 1.64493L11.9586 0.587891L12.2975 1.64493H11.6196Z" fill="white"/>
<path d="M11.8531 1.31688L12.95 1.31688L12.0626 1.97016L11.8531 1.31688Z" fill="white"/>
<path d="M12.2321 1.44074L12.571 2.49777L11.6837 1.84449L12.2321 1.44074Z" fill="white"/>
<path d="M1.5648 3.70831L0.677457 4.3616L1.01639 3.30456L1.5648 3.70831Z" fill="white"/>
<path d="M1.18495 3.83836L0.297607 3.18508L1.39442 3.18508L1.18495 3.83836Z" fill="white"/>
<path d="M0.95166 3.50919L1.29059 2.45215L1.62953 3.50919H0.95166Z" fill="white"/>
<path d="M1.18517 3.18211L2.28198 3.18211L1.39464 3.8354L1.18517 3.18211Z" fill="white"/>
<path d="M1.56411 3.30597L1.90304 4.36301L1.0157 3.70972L1.56411 3.30597Z" fill="white"/>
<path d="M5.83042 3.70831L4.94308 4.3616L5.28202 3.30456L5.83042 3.70831Z" fill="white"/>
<path d="M5.45057 3.83836L4.56323 3.18508L5.66004 3.18508L5.45057 3.83836Z" fill="white"/>
<path d="M5.21729 3.50919L5.55622 2.45215L5.89515 3.50919H5.21729Z" fill="white"/>
<path d="M5.4508 3.18211L6.54761 3.18211L5.66027 3.8354L5.4508 3.18211Z" fill="white"/>
<path d="M5.82973 3.30597L6.16867 4.36301L5.28133 3.70972L5.82973 3.30597Z" fill="white"/>
<path d="M10.0975 3.70831L9.21017 4.3616L9.54911 3.30456L10.0975 3.70831Z" fill="white"/>
<path d="M9.71766 3.83836L8.83032 3.18508L9.92713 3.18508L9.71766 3.83836Z" fill="white"/>
<path d="M9.48438 3.50919L9.82331 2.45215L10.1622 3.50919H9.48438Z" fill="white"/>
<path d="M9.71788 3.18211L10.8147 3.18211L9.92736 3.8354L9.71788 3.18211Z" fill="white"/>
<path d="M10.0968 3.30597L10.4358 4.36301L9.54842 3.70972L10.0968 3.30597Z" fill="white"/>
<path d="M-0.947154 5.02879L0.149658 5.02879L-0.737682 5.68208L-0.947154 5.02879Z" fill="white"/>
<path d="M-0.568215 5.15265L-0.229281 6.20969L-1.11662 5.5564L-0.568215 5.15265Z" fill="white"/>
<path d="M3.6981 5.55597L2.81076 6.20926L3.14969 5.15222L3.6981 5.55597Z" fill="white"/>
<path d="M3.31825 5.68504L2.43091 5.03176L3.52772 5.03176L3.31825 5.68504Z" fill="white"/>
<path d="M3.08496 5.35684L3.42389 4.2998L3.76283 5.35684H3.08496Z" fill="white"/>
<path d="M3.31847 5.02879L4.41528 5.02879L3.52794 5.68208L3.31847 5.02879Z" fill="white"/>
<path d="M3.69741 5.15265L4.03634 6.20969L3.149 5.5564L3.69741 5.15265Z" fill="white"/>
<path d="M7.96763 5.55597L7.08029 6.20926L7.41922 5.15222L7.96763 5.55597Z" fill="white"/>
<path d="M7.58778 5.68504L6.70044 5.03176L7.79725 5.03176L7.58778 5.68504Z" fill="white"/>
<path d="M7.35449 5.35684L7.69343 4.2998L8.03236 5.35684H7.35449Z" fill="white"/>
<path d="M7.588 5.02879L8.68481 5.02879L7.79747 5.68208L7.588 5.02879Z" fill="white"/>
<path d="M7.96694 5.15265L8.30588 6.20969L7.41854 5.5564L7.96694 5.15265Z" fill="white"/>
<path d="M12.2328 5.55597L11.3454 6.20926L11.6844 5.15222L12.2328 5.55597Z" fill="white"/>
<path d="M11.8529 5.68504L10.9656 5.03176L12.0624 5.03176L11.8529 5.68504Z" fill="white"/>
<path d="M11.6196 5.35684L11.9586 4.2998L12.2975 5.35684H11.6196Z" fill="white"/>
<path d="M11.8531 5.02879L12.95 5.02879L12.0626 5.68208L11.8531 5.02879Z" fill="white"/>
<path d="M12.2321 5.15265L12.571 6.20969L11.6837 5.5564L12.2321 5.15265Z" fill="white"/>
<path d="M1.56431 7.40949L0.676969 8.06277L1.0159 7.00573L1.56431 7.40949Z" fill="white"/>
<path d="M1.18495 7.53856L0.297607 6.88527L1.39442 6.88527L1.18495 7.53856Z" fill="white"/>
<path d="M0.95166 7.21036L1.29059 6.15332L1.62953 7.21036H0.95166Z" fill="white"/>
<path d="M1.18517 6.88231L2.28198 6.88231L1.39464 7.53559L1.18517 6.88231Z" fill="white"/>
<path d="M1.56411 7.00617L1.90304 8.0632L1.0157 7.40992L1.56411 7.00617Z" fill="white"/>
<path d="M5.82993 7.40949L4.94259 8.06277L5.28153 7.00573L5.82993 7.40949Z" fill="white"/>
<path d="M5.45057 7.53856L4.56323 6.88527L5.66004 6.88527L5.45057 7.53856Z" fill="white"/>
<path d="M5.21729 7.21036L5.55622 6.15332L5.89515 7.21036H5.21729Z" fill="white"/>
<path d="M5.4508 6.88231L6.54761 6.88231L5.66027 7.53559L5.4508 6.88231Z" fill="white"/>
<path d="M5.82973 7.00617L6.16867 8.0632L5.28133 7.40992L5.82973 7.00617Z" fill="white"/>
<path d="M10.0975 7.40949L9.21017 8.06277L9.54911 7.00573L10.0975 7.40949Z" fill="white"/>
<path d="M9.71766 7.53856L8.83032 6.88527L9.92713 6.88527L9.71766 7.53856Z" fill="white"/>
<path d="M9.48438 7.21036L9.82331 6.15332L10.1622 7.21036H9.48438Z" fill="white"/>
<path d="M9.71788 6.88231L10.8147 6.88231L9.92736 7.53559L9.71788 6.88231Z" fill="white"/>
<path d="M10.0968 7.00617L10.4358 8.0632L9.54842 7.40992L10.0968 7.00617Z" fill="white"/>
<path d="M-0.947154 8.72606L0.149658 8.72606L-0.737682 9.37934L-0.947154 8.72606Z" fill="white"/>
<path d="M-0.568215 8.84992L-0.229281 9.90695L-1.11662 9.25367L-0.568215 8.84992Z" fill="white"/>
<path d="M3.6981 9.25324L2.81076 9.90652L3.14969 8.84948L3.6981 9.25324Z" fill="white"/>
<path d="M3.31825 9.38231L2.43091 8.72902L3.52772 8.72902L3.31825 9.38231Z" fill="white"/>
<path d="M3.08496 9.05411L3.42389 7.99707L3.76283 9.05411H3.08496Z" fill="white"/>
<path d="M3.31847 8.72606L4.41528 8.72606L3.52794 9.37934L3.31847 8.72606Z" fill="white"/>
<path d="M3.69741 8.84992L4.03634 9.90695L3.149 9.25367L3.69741 8.84992Z" fill="white"/>
<path d="M7.96763 9.25324L7.08029 9.90652L7.41922 8.84948L7.96763 9.25324Z" fill="white"/>
<path d="M7.58778 9.38231L6.70044 8.72902L7.79725 8.72902L7.58778 9.38231Z" fill="white"/>
<path d="M7.35449 9.05411L7.69343 7.99707L8.03236 9.05411H7.35449Z" fill="white"/>
<path d="M7.588 8.72606L8.68481 8.72606L7.79747 9.37934L7.588 8.72606Z" fill="white"/>
<path d="M7.96694 8.84992L8.30588 9.90695L7.41854 9.25367L7.96694 8.84992Z" fill="white"/>
<path d="M12.2328 9.25324L11.3454 9.90652L11.6844 8.84948L12.2328 9.25324Z" fill="white"/>
<path d="M11.8529 9.38231L10.9656 8.72902L12.0624 8.72902L11.8529 9.38231Z" fill="white"/>
<path d="M11.6196 9.05411L11.9586 7.99707L12.2975 9.05411H11.6196Z" fill="white"/>
<path d="M11.8531 8.72606L12.95 8.72606L12.0626 9.37934L11.8531 8.72606Z" fill="white"/>
<path d="M12.2321 8.84992L12.571 9.90695L11.6837 9.25367L12.2321 8.84992Z" fill="white"/>
<path d="M1.5648 11.1107L0.677457 11.7639L1.01639 10.7069L1.5648 11.1107Z" fill="white"/>
<path d="M1.18495 11.2407L0.297607 10.5874L1.39442 10.5874L1.18495 11.2407Z" fill="white"/>
<path d="M0.95166 10.9115L1.29059 9.85449L1.62953 10.9115H0.95166Z" fill="white"/>
<path d="M1.18517 10.5845L2.28198 10.5845L1.39464 11.2377L1.18517 10.5845Z" fill="white"/>
<path d="M1.56411 10.7073L1.90304 11.7644L1.0157 11.1111L1.56411 10.7073Z" fill="white"/>
<path d="M5.83042 11.1107L4.94308 11.7639L5.28202 10.7069L5.83042 11.1107Z" fill="white"/>
<path d="M5.45057 11.2407L4.56323 10.5874L5.66004 10.5874L5.45057 11.2407Z" fill="white"/>
<path d="M5.21729 10.9115L5.55622 9.85449L5.89515 10.9115H5.21729Z" fill="white"/>
<path d="M5.4508 10.5845L6.54761 10.5845L5.66027 11.2377L5.4508 10.5845Z" fill="white"/>
<path d="M5.82973 10.7073L6.16867 11.7644L5.28133 11.1111L5.82973 10.7073Z" fill="white"/>
<path d="M10.0975 11.1107L9.21017 11.7639L9.54911 10.7069L10.0975 11.1107Z" fill="white"/>
<path d="M9.71766 11.2407L8.83032 10.5874L9.92713 10.5874L9.71766 11.2407Z" fill="white"/>
<path d="M9.48438 10.9115L9.82331 9.85449L10.1622 10.9115H9.48438Z" fill="white"/>
<path d="M9.71788 10.5845L10.8147 10.5845L9.92736 11.2377L9.71788 10.5845Z" fill="white"/>
<path d="M10.0968 10.7073L10.4358 11.7644L9.54842 11.1111L10.0968 10.7073Z" fill="white"/>
<path d="M-0.947154 12.4448L0.149658 12.4448L-0.737682 13.0981L-0.947154 12.4448Z" fill="white"/>
<path d="M-0.568215 12.5687L-0.229281 13.6257L-1.11662 12.9724L-0.568215 12.5687Z" fill="white"/>
<path d="M3.6981 12.972L2.81076 13.6253L3.14969 12.5682L3.6981 12.972Z" fill="white"/>
<path d="M3.31825 13.1011L2.43091 12.4478L3.52772 12.4478L3.31825 13.1011Z" fill="white"/>
<path d="M3.08496 12.7729L3.42389 11.7158L3.76283 12.7729H3.08496Z" fill="white"/>
<path d="M3.31847 12.4448L4.41528 12.4448L3.52794 13.0981L3.31847 12.4448Z" fill="white"/>
<path d="M3.69741 12.5687L4.03634 13.6257L3.149 12.9724L3.69741 12.5687Z" fill="white"/>
<path d="M7.96763 12.972L7.08029 13.6253L7.41922 12.5682L7.96763 12.972Z" fill="white"/>
<path d="M7.58778 13.1011L6.70044 12.4478L7.79725 12.4478L7.58778 13.1011Z" fill="white"/>
<path d="M7.35449 12.7729L7.69343 11.7158L8.03236 12.7729H7.35449Z" fill="white"/>
<path d="M7.588 12.4448L8.68481 12.4448L7.79747 13.0981L7.588 12.4448Z" fill="white"/>
<path d="M7.96694 12.5687L8.30588 13.6257L7.41854 12.9724L7.96694 12.5687Z" fill="white"/>
<path d="M12.2328 12.972L11.3454 13.6253L11.6844 12.5682L12.2328 12.972Z" fill="white"/>
<path d="M11.8529 13.1011L10.9656 12.4478L12.0624 12.4478L11.8529 13.1011Z" fill="white"/>
<path d="M11.6196 12.7729L11.9586 11.7158L12.2975 12.7729H11.6196Z" fill="white"/>
<path d="M11.8531 12.4448L12.95 12.4448L12.0626 13.0981L11.8531 12.4448Z" fill="white"/>
<path d="M12.2321 12.5687L12.571 13.6257L11.6837 12.9724L12.2321 12.5687Z" fill="white"/>
<path d="M1.5648 14.8187L0.677457 15.472L1.01639 14.4149L1.5648 14.8187Z" fill="white"/>
<path d="M1.18495 14.9477L0.297607 14.2945L1.39442 14.2945L1.18495 14.9477Z" fill="white"/>
<path d="M0.95166 14.6195L1.29059 13.5625L1.62953 14.6195H0.95166Z" fill="white"/>
<path d="M1.18517 14.2915L2.28198 14.2915L1.39464 14.9448L1.18517 14.2915Z" fill="white"/>
<path d="M1.56411 14.4153L1.90304 15.4724L1.0157 14.8191L1.56411 14.4153Z" fill="white"/>
<path d="M5.83042 14.8187L4.94308 15.472L5.28202 14.4149L5.83042 14.8187Z" fill="white"/>
<path d="M5.45057 14.9477L4.56323 14.2945L5.66004 14.2945L5.45057 14.9477Z" fill="white"/>
<path d="M5.21729 14.6195L5.55622 13.5625L5.89515 14.6195H5.21729Z" fill="white"/>
<path d="M5.4508 14.2915L6.54761 14.2915L5.66027 14.9448L5.4508 14.2915Z" fill="white"/>
<path d="M5.82973 14.4153L6.16867 15.4724L5.28133 14.8191L5.82973 14.4153Z" fill="white"/>
<path d="M10.0975 14.8187L9.21017 15.472L9.54911 14.4149L10.0975 14.8187Z" fill="white"/>
<path d="M9.71766 14.9477L8.83032 14.2945L9.92713 14.2945L9.71766 14.9477Z" fill="white"/>
<path d="M9.48438 14.6195L9.82331 13.5625L10.1622 14.6195H9.48438Z" fill="white"/>
<path d="M9.71788 14.2915L10.8147 14.2915L9.92736 14.9448L9.71788 14.2915Z" fill="white"/>
<path d="M10.0968 14.4153L10.4358 15.4724L9.54842 14.8191L10.0968 14.4153Z" fill="white"/>
<path d="M-0.948619 16.1509L0.148193 16.1509L-0.739146 16.8041L-0.948619 16.1509Z" fill="white"/>
<path d="M-0.56968 16.2747L-0.230746 17.3318L-1.11809 16.6785L-0.56968 16.2747Z" fill="white"/>
<path d="M3.6981 16.6771L2.81076 17.3304L3.14969 16.2733L3.6981 16.6771Z" fill="white"/>
<path d="M3.31825 16.8071L2.43091 16.1538L3.52772 16.1538L3.31825 16.8071Z" fill="white"/>
<path d="M3.08496 16.4779L3.42389 15.4209L3.76283 16.4779H3.08496Z" fill="white"/>
<path d="M3.31847 16.1509L4.41528 16.1509L3.52794 16.8041L3.31847 16.1509Z" fill="white"/>
<path d="M3.69741 16.2747L4.03634 17.3318L3.149 16.6785L3.69741 16.2747Z" fill="white"/>
<path d="M7.96714 16.6771L7.0798 17.3304L7.41873 16.2733L7.96714 16.6771Z" fill="white"/>
<path d="M7.58729 16.8071L6.69995 16.1538L7.79676 16.1538L7.58729 16.8071Z" fill="white"/>
<path d="M7.354 16.4779L7.69294 15.4209L8.03187 16.4779H7.354Z" fill="white"/>
<path d="M7.58751 16.1509L8.68433 16.1509L7.79699 16.8041L7.58751 16.1509Z" fill="white"/>
<path d="M7.96645 16.2747L8.30539 17.3318L7.41805 16.6785L7.96645 16.2747Z" fill="white"/>
<path d="M12.2328 16.6771L11.3454 17.3304L11.6844 16.2733L12.2328 16.6771Z" fill="white"/>
<path d="M11.8529 16.8071L10.9656 16.1538L12.0624 16.1538L11.8529 16.8071Z" fill="white"/>
<path d="M11.6196 16.4779L11.9586 15.4209L12.2975 16.4779H11.6196Z" fill="white"/>
<path d="M11.8531 16.1509L12.95 16.1509L12.0626 16.8041L11.8531 16.1509Z" fill="white"/>
<path d="M12.2321 16.2747L12.571 17.3318L11.6837 16.6785L12.2321 16.2747Z" fill="white"/>
</svg>
