<svg width="310" height="86" viewBox="0 0 310 86" fill="none" xmlns="http://www.w3.org/2000/svg">
<g clip-path="url(#clip0_2099_17328)">
<path d="M191 12.5H212.5V81.5H97.5V12.5H117.101C124.416 12.5 131.018 8.95052 137.02 5.29645L137.02 5.29605C141.998 2.25471 147.831 0.5 154.078 0.5C160.325 0.5 166.157 2.25471 171.135 5.29605L171.136 5.29664C177.146 8.94959 183.675 12.5 191 12.5Z" fill="black" stroke="#8B5CF6"/>
</g>
<mask id="path-2-inside-1_2099_17328" fill="white">
<path d="M212 12H270V82H212V12Z"/>
</mask>
<path d="M212 12H270V82H212V12Z" fill="black"/>
<path d="M212 13H270V11H212V13ZM270 81H212V83H270V81Z" fill="#8B5CF6" mask="url(#path-2-inside-1_2099_17328)"/>
<mask id="path-4-inside-2_2099_17328" fill="white">
<path d="M270 12H283C296.255 12 307 22.7452 307 36V58C307 71.2548 296.255 82 283 82H270V12Z"/>
</mask>
<path d="M270 12H283C296.255 12 307 22.7452 307 36V58C307 71.2548 296.255 82 283 82H270V12Z" fill="black"/>
<path d="M270 11H283C296.807 11 308 22.1929 308 36H306C306 23.2975 295.703 13 283 13H270V11ZM308 58C308 71.8071 296.807 83 283 83H270V81H283C295.703 81 306 70.7025 306 58H308ZM270 82V12V82ZM283 11C296.807 11 308 22.1929 308 36V58C308 71.8071 296.807 83 283 83V81C295.703 81 306 70.7025 306 58V36C306 23.2975 295.703 13 283 13V11Z" fill="#8B5CF6" mask="url(#path-4-inside-2_2099_17328)"/>
<mask id="path-6-inside-3_2099_17328" fill="white">
<path d="M3 36C3 22.7452 13.7452 12 27 12H40V82H27C13.7452 82 3 71.2548 3 58V36Z"/>
</mask>
<path d="M3 36C3 22.7452 13.7452 12 27 12H40V82H27C13.7452 82 3 71.2548 3 58V36Z" fill="black"/>
<path d="M2 36C2 22.1929 13.1929 11 27 11H40V13H27C14.2975 13 4 23.2975 4 36H2ZM40 83H27C13.1929 83 2 71.8071 2 58H4C4 70.7025 14.2975 81 27 81H40V83ZM27 83C13.1929 83 2 71.8071 2 58V36C2 22.1929 13.1929 11 27 11V13C14.2975 13 4 23.2975 4 36V58C4 70.7025 14.2975 81 27 81V83ZM40 12V82V12Z" fill="#8B5CF6" mask="url(#path-6-inside-3_2099_17328)"/>
<mask id="path-8-inside-4_2099_17328" fill="white">
<path d="M40 12H98V82H40V12Z"/>
</mask>
<path d="M40 12H98V82H40V12Z" fill="black"/>
<path d="M40 13H98V11H40V13ZM98 81H40V83H98V81Z" fill="#8B5CF6" mask="url(#path-8-inside-4_2099_17328)"/>
<path d="M212 16H190.488C183.441 16 177.022 12.5884 171.113 9.33494C166.147 6.58617 160.326 5 154.094 5C147.861 5 142.041 6.58617 137.074 9.33494C131.175 12.5884 124.746 16 117.709 16H98V78H212V16Z" fill="#171717"/>
<path d="M212 16H266V78H212V16Z" fill="#171717"/>
<path d="M266 16H283C294.046 16 303 24.9543 303 36V58C303 69.0457 294.046 78 283 78H266V16Z" fill="#171717"/>
<path d="M8 36C8 24.9543 16.9543 16 28 16H44V78H28C16.9543 78 8 69.0457 8 58V36Z" fill="#171717"/>
<path d="M44 16H98V78H44V16Z" fill="#171717"/>
<defs>
<clipPath id="clip0_2099_17328">
<rect width="114" height="82" fill="white" transform="translate(98)"/>
</clipPath>
</defs>
</svg>
