<svg width="32" height="31" viewBox="0 0 32 31" fill="none" xmlns="http://www.w3.org/2000/svg">
<path d="M18.1507 27.9097C18.1507 27.9097 26.8498 18.4747 29.0245 16.1158C31.1993 13.7571 32.2867 7.86012 28.4809 3.73231C24.675 -0.395542 19.2381 0.783841 17.0632 3.14262C14.8885 5.50137 3.47092 17.885 2.38353 19.0644C1.29614 20.2437 -0.334942 24.3715 2.92722 27.9097C6.18938 31.4479 9.99528 29.6788 11.0827 28.4994C12.17 27.3201 24.1313 14.3468 25.2186 13.1674C26.3061 11.988 26.8498 9.03958 25.2186 7.27044C23.5876 5.50137 20.8691 6.09106 19.7818 7.27044C18.6944 8.44989 9.45159 18.4747 9.45159 18.4747" stroke="#656565" stroke-width="2" stroke-linecap="round" stroke-linejoin="round"/>
</svg>
