<svg width="22" height="22" viewBox="0 0 22 22" fill="none" xmlns="http://www.w3.org/2000/svg">
<path d="M11.0002 2.75V19.25C7.79183 19.25 5.40781 15.0513 5.40781 15.0513H2.75016C2.2439 15.0513 1.8335 14.6409 1.8335 14.1346V7.79662C1.8335 7.29034 2.2439 6.87995 2.75016 6.87995H5.40781C5.40781 6.87995 7.79183 2.75 11.0002 2.75Z" fill="#8B5CF6" stroke="#8B5CF6" stroke-linejoin="round"/>
<path d="M14.6665 6.875C14.9521 7.13006 15.2111 7.4157 15.4384 7.72695C16.1051 8.63977 16.4998 9.77272 16.4998 11C16.4998 12.2166 16.1119 13.3406 15.4557 14.2493C15.2242 14.5697 14.9594 14.8634 14.6665 15.125" stroke="#8B5CF6" stroke-linecap="round" stroke-linejoin="round"/>
<path d="M15.6914 18.8773C18.3716 17.2775 20.1666 14.3486 20.1666 11.0005C20.1666 7.70438 18.4269 4.81459 15.8157 3.19922" stroke="#8B5CF6" stroke-linecap="round"/>
</svg>
